<svg width="58" height="33" viewBox="0 0 58 33" fill="none" xmlns="http://www.w3.org/2000/svg">
<path d="M3.972 16.6106C4.10383 15.7533 4.08384 13.9908 3.77407 12.177C3.46429 10.3633 3.15568 8.55638 2.77483 6.73171C2.67486 6.25279 2.40728 5.79545 2.5297 5.44386C3.10751 3.7844 5.86204 4.26299 7.67577 3.95322C9.48951 3.64344 11.2964 3.33483 13.1102 3.02506C13.5653 2.94732 14.0136 2.87075 14.4756 2.79186" stroke="black" stroke-width="5" stroke-linecap="round"/>
<path d="M4 6.37695C6.34472 7.3461 12.1477 12.4855 17.615 16.0431C22.9944 19.5433 28.149 21.4964 32.939 24.0775C37.5903 25.4283 42.2007 26.5656 47.5376 27.4217C49.4081 27.4226 51.9705 27.1338 54.6105 26.8362" stroke="black" stroke-width="5" stroke-linecap="round"/>
</svg>
