<svg width="67" height="109" viewBox="0 0 67 109" fill="none" xmlns="http://www.w3.org/2000/svg">
<path d="M24.833 94.8311H40.8449V100.886C40.8449 104.476 37.9347 107.386 34.3449 107.386H31.333C27.7432 107.386 24.833 104.476 24.833 100.886V94.8311Z" fill="#D09D3A" stroke="black" stroke-width="3"/>
<line x1="24.5256" y1="93.8704" x2="16.333" y2="72.6074" stroke="black" stroke-width="3"/>
<line x1="40.9041" y1="94.6417" x2="47.5734" y2="71.6504" stroke="black" stroke-width="3"/>
<path d="M65.0416 40.1842C65.0416 61.8264 50.5647 78.8684 33.2708 78.8684C15.9769 78.8684 1.5 61.8264 1.5 40.1842C1.5 18.542 15.9769 1.5 33.2708 1.5C50.5647 1.5 65.0416 18.542 65.0416 40.1842Z" fill="#3DD193" stroke="black" stroke-width="3"/>
<path d="M52.0793 40.1842C52.0793 51.1051 49.9343 60.9183 46.5341 67.9454C43.0834 75.0768 38.6045 78.8684 34.1354 78.8684C29.6663 78.8684 25.1873 75.0768 21.7367 67.9454C18.3364 60.9183 16.1914 51.1051 16.1914 40.1842C16.1914 29.2633 18.3364 19.4501 21.7367 12.423C25.1873 5.2916 29.6663 1.5 34.1354 1.5C38.6045 1.5 43.0834 5.2916 46.5341 12.423C49.9343 19.4501 52.0793 29.2633 52.0793 40.1842Z" fill="#36CECE" stroke="black" stroke-width="3"/>
<path d="M44.3016 40.1842C44.3016 51.1843 43.0534 61.0881 41.0665 68.1948C40.0702 71.7587 38.9113 74.5339 37.6888 76.3834C36.4274 78.2919 35.3418 78.8684 34.5673 78.8684C33.7928 78.8684 32.7072 78.2919 31.4458 76.3834C30.2233 74.5339 29.0644 71.7587 28.0681 68.1948C26.0812 61.0881 24.833 51.1843 24.833 40.1842C24.833 29.1841 26.0812 19.2803 28.0681 12.1735C29.0644 8.60972 30.2233 5.83447 31.4458 3.98499C32.7072 2.07649 33.7928 1.5 34.5673 1.5C35.3418 1.5 36.4274 2.07649 37.6888 3.98499C38.9113 5.83447 40.0702 8.60972 41.0665 12.1735C43.0534 19.2803 44.3016 29.1841 44.3016 40.1842Z" fill="#99FCEB" stroke="black" stroke-width="3"/>
</svg>
