<svg width="86" height="141" viewBox="0 0 86 141" fill="none" xmlns="http://www.w3.org/2000/svg">
<path d="M31.6372 122.045H53.1929V132.636C53.1929 136.226 50.2827 139.136 46.6929 139.136H38.1372C34.5474 139.136 31.6372 136.226 31.6372 132.636V122.045Z" fill="#D09D3A" stroke="black" stroke-width="3"/>
<line x1="32.0852" y1="121.085" x2="21.5036" y2="93.6216" stroke="black" stroke-width="3"/>
<line x1="53.2518" y1="122.359" x2="61.8658" y2="92.664" stroke="black" stroke-width="3"/>
<path d="M84.4448 51.9017C84.4448 80.0153 65.6244 102.303 42.9724 102.303C20.3204 102.303 1.5 80.0153 1.5 51.9017C1.5 23.7882 20.3204 1.5 42.9724 1.5C65.6244 1.5 84.4448 23.7882 84.4448 51.9017Z" fill="#3DD193" stroke="black" stroke-width="3"/>
<path d="M67.7021 51.9017C67.7021 66.0583 64.9225 78.8009 60.4962 87.9485C56.0195 97.2004 50.1231 102.303 44.0884 102.303C38.0536 102.303 32.1572 97.2004 27.6805 87.9485C23.2543 78.8009 20.4746 66.0583 20.4746 51.9017C20.4746 37.7452 23.2543 25.0026 27.6805 15.855C32.1572 6.60313 38.0536 1.5 44.0884 1.5C50.1231 1.5 56.0195 6.60313 60.4962 15.855C64.9225 25.0026 67.7021 37.7452 67.7021 51.9017Z" fill="#3DD193" stroke="black" stroke-width="3"/>
<path d="M57.6575 51.9017C57.6575 66.1376 56.0426 78.9708 53.463 88.198C52.1703 92.822 50.6584 96.4553 49.044 98.8977C47.3906 101.399 45.8742 102.303 44.6474 102.303C43.4206 102.303 41.9041 101.399 40.2507 98.8977C38.6363 96.4553 37.1245 92.822 35.8317 88.198C33.2521 78.9708 31.6372 66.1376 31.6372 51.9017C31.6372 37.6659 33.2521 24.8327 35.8317 15.6055C37.1245 10.9815 38.6363 7.34823 40.2507 4.90581C41.9041 2.40438 43.4206 1.5 44.6474 1.5C45.8742 1.5 47.3906 2.40438 49.044 4.90581C50.6584 7.34823 52.1703 10.9815 53.463 15.6055C56.0426 24.8327 57.6575 37.6659 57.6575 51.9017Z" fill="#36CECE" stroke="black" stroke-width="3"/>
</svg>
