<svg width="83" height="135" viewBox="0 0 83 135" fill="none" xmlns="http://www.w3.org/2000/svg">
<path d="M30.3716 117.261H50.8971V127.009C50.8971 130.599 47.987 133.509 44.3971 133.509H36.8716C33.2817 133.509 30.3716 130.599 30.3716 127.009V117.261Z" fill="#D09D3A" stroke="black" stroke-width="3"/>
<line x1="30.6804" y1="116.301" x2="20.5428" y2="89.9895" stroke="black" stroke-width="3"/>
<line x1="50.9568" y1="117.482" x2="59.2095" y2="89.0323" stroke="black" stroke-width="3"/>
<path d="M80.8394 49.9969C80.8394 76.908 62.826 98.2213 41.1697 98.2213C19.5133 98.2213 1.5 76.908 1.5 49.9969C1.5 23.0858 19.5133 1.77246 41.1697 1.77246C62.826 1.77246 80.8394 23.0858 80.8394 49.9969Z" fill="#99FCEA" stroke="black" stroke-width="3"/>
<path d="M64.7986 49.9969C64.7986 63.5522 62.1369 75.7505 57.9013 84.504C53.6153 93.3619 47.9823 98.2213 42.2384 98.2213C36.4946 98.2213 30.8616 93.3619 26.5755 84.504C22.3399 75.7505 19.6782 63.5522 19.6782 49.9969C19.6782 36.4416 22.3399 24.2433 26.5755 15.4897C30.8616 6.63189 36.4946 1.77246 42.2384 1.77246C47.9823 1.77246 53.6153 6.63189 57.9013 15.4897C62.1369 24.2433 64.7986 36.4416 64.7986 49.9969Z" fill="#36CECE" stroke="black" stroke-width="3"/>
<path d="M55.1745 49.9969C55.1745 63.6315 53.6277 75.9203 51.1582 84.7535C49.9206 89.1805 48.4743 92.6544 46.9327 94.9866C45.3522 97.3779 43.9158 98.2213 42.773 98.2213C41.6303 98.2213 40.1939 97.3779 38.6133 94.9866C37.0718 92.6544 35.6255 89.1805 34.3878 84.7535C31.9183 75.9203 30.3716 63.6315 30.3716 49.9969C30.3716 36.3623 31.9183 24.0734 34.3878 15.2403C35.6255 10.8132 37.0718 7.33941 38.6133 5.00717C40.1939 2.61591 41.6303 1.77246 42.773 1.77246C43.9158 1.77246 45.3522 2.61591 46.9327 5.00717C48.4743 7.33941 49.9206 10.8132 51.1582 15.2403C53.6277 24.0734 55.1745 36.3623 55.1745 49.9969Z" fill="#99FCEA" stroke="black" stroke-width="3"/>
</svg>
