<svg width="165" height="117" viewBox="0 0 165 117" fill="none" xmlns="http://www.w3.org/2000/svg">
<mask id="path-1-inside-1_95_1525" fill="white">
<path fill-rule="evenodd" clip-rule="evenodd" d="M139.688 31.1049C153.48 32.3857 164.276 43.9899 164.276 58.1158C164.276 70.7726 155.609 81.405 143.885 84.4008C141.585 102.443 126.176 116.391 107.508 116.391C96.4437 116.391 86.5238 111.491 79.7998 103.743C73.8472 107.915 66.5983 110.363 58.7778 110.363C42.4904 110.363 28.6829 99.7451 23.8993 85.0538C10.4388 83.4574 0 72.0057 0 58.1158C0 43.1333 12.1457 30.9876 27.1282 30.9876C28.5911 30.9876 30.027 31.1034 31.4272 31.3263C37.5982 19.765 49.7811 11.8973 63.8015 11.8973C67.7744 11.8973 71.5998 12.529 75.1826 13.6976C81.909 5.54178 92.0919 0.342773 103.489 0.342773C121.731 0.342773 136.862 13.6614 139.688 31.1049Z"/>
</mask>
<path fill-rule="evenodd" clip-rule="evenodd" d="M139.688 31.1049C153.48 32.3857 164.276 43.9899 164.276 58.1158C164.276 70.7726 155.609 81.405 143.885 84.4008C141.585 102.443 126.176 116.391 107.508 116.391C96.4437 116.391 86.5238 111.491 79.7998 103.743C73.8472 107.915 66.5983 110.363 58.7778 110.363C42.4904 110.363 28.6829 99.7451 23.8993 85.0538C10.4388 83.4574 0 72.0057 0 58.1158C0 43.1333 12.1457 30.9876 27.1282 30.9876C28.5911 30.9876 30.027 31.1034 31.4272 31.3263C37.5982 19.765 49.7811 11.8973 63.8015 11.8973C67.7744 11.8973 71.5998 12.529 75.1826 13.6976C81.909 5.54178 92.0919 0.342773 103.489 0.342773C121.731 0.342773 136.862 13.6614 139.688 31.1049Z" fill="url(#paint0_linear_95_1525)"/>
<path d="M139.688 31.1049L137.714 31.4249L137.962 32.9532L139.504 33.0964L139.688 31.1049ZM143.885 84.4008L143.39 82.4631L142.073 82.7996L141.901 84.148L143.885 84.4008ZM79.7998 103.743L81.3103 102.432L80.1285 101.071L78.652 102.105L79.7998 103.743ZM23.8993 85.0538L25.801 84.4346L25.405 83.2184L24.1348 83.0677L23.8993 85.0538ZM31.4272 31.3263L31.1127 33.3014L32.5204 33.5255L33.1916 32.2681L31.4272 31.3263ZM75.1826 13.6976L74.5625 15.599L75.8583 16.0216L76.7256 14.9701L75.1826 13.6976ZM166.276 58.1158C166.276 42.9474 154.684 30.4889 139.873 29.1135L139.504 33.0964C152.276 34.2826 162.276 45.0325 162.276 58.1158H166.276ZM144.38 86.3386C156.968 83.122 166.276 71.7085 166.276 58.1158H162.276C162.276 69.8368 154.249 79.688 143.39 82.4631L144.38 86.3386ZM107.508 118.391C127.195 118.391 143.444 103.682 145.869 84.6537L141.901 84.148C139.727 101.205 125.156 114.391 107.508 114.391V118.391ZM78.2893 105.054C85.377 113.221 95.8399 118.391 107.508 118.391V114.391C97.0475 114.391 87.6706 109.761 81.3103 102.432L78.2893 105.054ZM58.7778 112.363C67.0222 112.363 74.6695 109.781 80.9476 105.381L78.652 102.105C73.0248 106.049 66.1745 108.363 58.7778 108.363V112.363ZM21.9975 85.673C27.0413 101.163 41.5991 112.363 58.7778 112.363V108.363C43.3817 108.363 30.3244 98.3268 25.801 84.4346L21.9975 85.673ZM-2 58.1158C-2 73.0311 9.20885 85.3256 23.6637 87.0399L24.1348 83.0677C11.6688 81.5893 2 70.9802 2 58.1158H-2ZM27.1282 28.9876C11.0411 28.9876 -2 42.0287 -2 58.1158H2C2 44.2378 13.2503 32.9876 27.1282 32.9876V28.9876ZM31.7417 29.3512C30.2379 29.1117 28.6968 28.9876 27.1282 28.9876V32.9876C28.4854 32.9876 29.8162 33.095 31.1127 33.3014L31.7417 29.3512ZM63.8015 9.89729C49.0137 9.89729 36.1676 18.1979 29.6628 30.3845L33.1916 32.2681C39.0288 21.3322 50.5484 13.8973 63.8015 13.8973V9.89729ZM75.8028 11.7961C72.0222 10.5631 67.9876 9.89729 63.8015 9.89729V13.8973C67.5612 13.8973 71.1774 14.495 74.5625 15.599L75.8028 11.7961ZM76.7256 14.9701C83.0883 7.25522 92.7142 2.34277 103.489 2.34277V-1.65723C91.4696 -1.65723 80.7297 3.82835 73.6397 12.425L76.7256 14.9701ZM103.489 2.34277C120.734 2.34277 135.042 14.9342 137.714 31.4249L141.663 30.785C138.682 12.3886 122.728 -1.65723 103.489 -1.65723V2.34277Z" fill="black" mask="url(#path-1-inside-1_95_1525)"/>
<defs>
<linearGradient id="paint0_linear_95_1525" x1="101.799" y1="63.2571" x2="82.1381" y2="116.391" gradientUnits="userSpaceOnUse">
<stop stop-color="white"/>
<stop offset="1" stop-color="#E5F6FA"/>
</linearGradient>
</defs>
</svg>
