<svg width="146" height="103" viewBox="0 0 146 103" fill="none" xmlns="http://www.w3.org/2000/svg">
<mask id="path-1-inside-1_95_1546" fill="white">
<path fill-rule="evenodd" clip-rule="evenodd" d="M66.6078 11.8317C72.567 4.60609 81.5885 0 91.6859 0C107.847 0 121.252 11.7997 123.757 27.2538C135.975 28.3886 145.54 38.6692 145.54 51.1839C145.54 62.3972 137.861 71.8169 127.475 74.4711C125.437 90.4558 111.785 102.812 95.2465 102.812C85.4441 102.812 76.6556 98.4716 70.6985 91.6072C65.4247 95.3029 59.0026 97.4717 52.0739 97.4717C37.6443 97.4717 25.4117 88.0652 21.1736 75.0496C9.24831 73.6353 0 63.4897 0 51.1839C0 37.9103 10.7604 27.1498 24.0341 27.1498C25.3302 27.1498 26.6024 27.2524 27.8429 27.45C33.3101 17.2073 44.1035 10.2368 56.5249 10.2368C60.0446 10.2368 63.4336 10.7965 66.6078 11.8317Z"/>
</mask>
<path fill-rule="evenodd" clip-rule="evenodd" d="M66.6078 11.8317C72.567 4.60609 81.5885 0 91.6859 0C107.847 0 121.252 11.7997 123.757 27.2538C135.975 28.3886 145.54 38.6692 145.54 51.1839C145.54 62.3972 137.861 71.8169 127.475 74.4711C125.437 90.4558 111.785 102.812 95.2465 102.812C85.4441 102.812 76.6556 98.4716 70.6985 91.6072C65.4247 95.3029 59.0026 97.4717 52.0739 97.4717C37.6443 97.4717 25.4117 88.0652 21.1736 75.0496C9.24831 73.6353 0 63.4897 0 51.1839C0 37.9103 10.7604 27.1498 24.0341 27.1498C25.3302 27.1498 26.6024 27.2524 27.8429 27.45C33.3101 17.2073 44.1035 10.2368 56.5249 10.2368C60.0446 10.2368 63.4336 10.7965 66.6078 11.8317Z" fill="url(#paint0_linear_95_1546)"/>
<path d="M66.6078 11.8317L65.9877 13.7332L67.2835 14.1558L68.1508 13.1042L66.6078 11.8317ZM123.757 27.2538L121.782 27.5737L122.03 29.1021L123.572 29.2453L123.757 27.2538ZM127.475 74.4711L126.979 72.5334L125.663 72.8699L125.491 74.2182L127.475 74.4711ZM70.6985 91.6072L72.209 90.2963L71.0272 88.9346L69.5507 89.9693L70.6985 91.6072ZM21.1736 75.0496L23.0753 74.4304L22.6793 73.2141L21.4091 73.0635L21.1736 75.0496ZM27.8429 27.45L27.5285 29.4251L28.9361 29.6492L29.6073 28.3917L27.8429 27.45ZM68.1508 13.1042C73.7463 6.31952 82.2108 2 91.6859 2V-2C80.9662 -2 71.3877 2.89266 65.0648 10.5592L68.1508 13.1042ZM91.6859 2C106.85 2 119.433 13.0725 121.782 27.5737L125.731 26.9339C123.072 10.5269 108.844 -2 91.6859 -2V2ZM147.54 51.1839C147.54 37.6267 137.179 26.4918 123.942 25.2624L123.572 29.2453C134.771 30.2854 143.54 39.7118 143.54 51.1839H147.54ZM127.97 76.4088C139.22 73.5339 147.54 63.3331 147.54 51.1839H143.54C143.54 61.4614 136.502 70.1 126.979 72.5334L127.97 76.4088ZM95.2465 104.812C112.804 104.812 127.295 91.6946 129.459 74.724L125.491 74.2182C123.579 89.2169 110.765 100.812 95.2465 100.812V104.812ZM69.188 92.9181C75.5088 100.202 84.8403 104.812 95.2465 104.812V100.812C86.0479 100.812 77.8024 96.7416 72.209 90.2963L69.188 92.9181ZM52.0739 99.4717C59.4265 99.4717 66.2471 97.1688 71.8463 93.245L69.5507 89.9693C64.6023 93.437 58.5787 95.4717 52.0739 95.4717V99.4717ZM19.2718 75.6688C23.7701 89.4835 36.753 99.4717 52.0739 99.4717V95.4717C38.5356 95.4717 27.0532 86.6468 23.0753 74.4304L19.2718 75.6688ZM-2 51.1839C-2 64.5151 8.01833 75.5035 20.938 77.0357L21.4091 73.0635C10.4783 71.7672 2 62.4642 2 51.1839H-2ZM24.0341 25.1498C9.65587 25.1498 -2 36.8057 -2 51.1839H2C2 39.0148 11.865 29.1498 24.0341 29.1498V25.1498ZM28.1574 25.4748C26.8133 25.2608 25.436 25.1498 24.0341 25.1498V29.1498C25.2245 29.1498 26.3916 29.2441 27.5285 29.4251L28.1574 25.4748ZM56.5249 8.23683C43.3361 8.23683 31.8795 15.6401 26.0785 26.5082L29.6073 28.3917C34.7407 18.7744 44.8709 12.2368 56.5249 12.2368V8.23683ZM67.2279 9.9303C63.856 8.83058 60.2578 8.23683 56.5249 8.23683V12.2368C59.8314 12.2368 63.0113 12.7624 65.9877 13.7332L67.2279 9.9303Z" fill="black" mask="url(#path-1-inside-1_95_1546)"/>
<defs>
<linearGradient id="paint0_linear_95_1546" x1="90.1884" y1="55.7386" x2="72.7701" y2="102.813" gradientUnits="userSpaceOnUse">
<stop stop-color="white"/>
<stop offset="1" stop-color="#E5F6FA"/>
</linearGradient>
</defs>
</svg>
