<svg width="183" height="125" viewBox="0 0 183 125" fill="none" xmlns="http://www.w3.org/2000/svg">
<mask id="path-1-inside-1_95_1518" fill="white">
<path fill-rule="evenodd" clip-rule="evenodd" d="M124.202 12.5847C127.353 12.4 130.569 12.5277 133.815 12.9948C155.37 16.097 171.459 33.1947 174.206 53.7647C180.761 62.4186 183.987 73.5884 182.318 85.1828C179.006 108.197 157.665 124.169 134.651 120.856C128.309 119.944 122.501 117.662 117.485 114.353C108.592 121.974 96.5833 125.866 84.0806 124.066C75.2805 122.8 67.5101 118.897 61.4538 113.273C54.0573 116.961 45.5016 118.514 36.7015 117.248C13.6874 113.936 -2.28417 92.5943 1.02791 69.5802C3.00799 55.8216 11.4319 44.58 22.8048 38.471C28.6023 18.8134 48.046 5.85011 68.9165 8.72573C77.5722 2.1643 88.7473 -1.06549 100.347 0.603945C109.754 1.95772 117.984 6.32364 124.202 12.5847Z"/>
</mask>
<path fill-rule="evenodd" clip-rule="evenodd" d="M124.202 12.5847C127.353 12.4 130.569 12.5277 133.815 12.9948C155.37 16.097 171.459 33.1947 174.206 53.7647C180.761 62.4186 183.987 73.5884 182.318 85.1828C179.006 108.197 157.665 124.169 134.651 120.856C128.309 119.944 122.501 117.662 117.485 114.353C108.592 121.974 96.5833 125.866 84.0806 124.066C75.2805 122.8 67.5101 118.897 61.4538 113.273C54.0573 116.961 45.5016 118.514 36.7015 117.248C13.6874 113.936 -2.28417 92.5943 1.02791 69.5802C3.00799 55.8216 11.4319 44.58 22.8048 38.471C28.6023 18.8134 48.046 5.85011 68.9165 8.72573C77.5722 2.1643 88.7473 -1.06549 100.347 0.603945C109.754 1.95772 117.984 6.32364 124.202 12.5847Z" fill="url(#paint0_linear_95_1518)"/>
<path d="M124.202 12.5847L122.783 13.994L123.419 14.6341L124.319 14.5813L124.202 12.5847ZM174.206 53.7647L172.224 54.0294L172.294 54.552L172.612 54.9723L174.206 53.7647ZM117.485 114.353L118.586 112.684L117.328 111.854L116.184 112.835L117.485 114.353ZM61.4538 113.273L62.8148 111.807L61.8003 110.865L60.5613 111.483L61.4538 113.273ZM22.8048 38.471L23.7512 40.2329L24.4869 39.8377L24.7231 39.0368L22.8048 38.471ZM68.9165 8.72573L68.6436 10.707L69.4644 10.8201L70.1247 10.3195L68.9165 8.72573ZM134.1 11.0152C130.72 10.5288 127.369 10.3956 124.085 10.5882L124.319 14.5813C127.337 14.4044 130.418 14.5266 133.53 14.9744L134.1 11.0152ZM176.189 53.5C173.326 32.0664 156.564 14.2482 134.1 11.0152L133.53 14.9744C154.177 17.9458 169.592 34.323 172.224 54.0294L176.189 53.5ZM184.298 85.4677C186.046 73.323 182.665 61.6195 175.8 52.5571L172.612 54.9723C178.857 63.2176 181.928 73.8539 180.339 84.8979L184.298 85.4677ZM134.366 122.836C158.473 126.305 180.828 109.575 184.298 85.4677L180.339 84.8979C177.184 106.819 156.856 122.032 134.935 118.877L134.366 122.836ZM116.384 116.023C121.641 119.49 127.726 121.88 134.366 122.836L134.935 118.877C128.891 118.007 123.362 115.834 118.586 112.684L116.384 116.023ZM83.7957 126.046C96.8927 127.931 109.475 123.852 118.787 115.872L116.184 112.835C107.71 120.096 96.2739 123.801 84.3655 122.087L83.7957 126.046ZM60.0928 114.739C66.4376 120.631 74.5802 124.72 83.7957 126.046L84.3655 122.087C75.9808 120.88 68.5826 117.164 62.8148 111.807L60.0928 114.739ZM36.4166 119.228C45.6322 120.554 54.5974 118.927 62.3463 115.063L60.5613 111.483C53.5171 114.996 45.3711 116.475 36.9864 115.268L36.4166 119.228ZM-0.951697 69.2953C-4.42111 93.4027 12.3092 115.758 36.4166 119.228L36.9864 115.268C15.0656 112.114 -0.147219 91.7859 3.00751 69.8651L-0.951697 69.2953ZM21.8584 36.7091C9.9503 43.1056 1.12265 54.8817 -0.951697 69.2953L3.00751 69.8651C4.89333 56.7615 12.9136 46.0544 23.7512 40.2329L21.8584 36.7091ZM69.1895 6.74445C47.3255 3.73194 26.96 17.3119 20.8865 37.9053L24.7231 39.0368C30.2447 20.3149 48.7665 7.96827 68.6436 10.707L69.1895 6.74445ZM70.1247 10.3195C78.3718 4.06787 89.0131 0.993358 100.063 2.58355L100.632 -1.37566C88.4816 -3.12433 76.7726 0.260735 67.7083 7.13191L70.1247 10.3195ZM100.063 2.58355C109.025 3.87334 116.861 8.0305 122.783 13.994L125.621 11.1754C119.108 4.61677 110.484 0.0421032 100.632 -1.37566L100.063 2.58355Z" fill="black" mask="url(#path-1-inside-1_95_1518)"/>
<defs>
<linearGradient id="paint0_linear_95_1518" x1="99.9507" y1="76.7651" x2="84.5098" y2="132.918" gradientUnits="userSpaceOnUse">
<stop stop-color="white"/>
<stop offset="1" stop-color="#E5F6FA"/>
</linearGradient>
</defs>
</svg>
