<svg width="169" height="107" viewBox="0 0 169 107" fill="none" xmlns="http://www.w3.org/2000/svg">
<mask id="path-1-inside-1_114_8" fill="white">
<path fill-rule="evenodd" clip-rule="evenodd" d="M150.731 38.162C145.114 19.4036 127.72 5.73313 107.133 5.73313C103.004 5.73313 99.0036 6.28309 95.2007 7.31376C87.7422 2.67756 78.9394 0 69.5112 0C50.1281 0 33.3883 11.3169 25.5386 27.7038C10.6033 33.4296 0 47.9031 0 64.8531C0 86.8185 17.8065 104.625 39.7719 104.625C45.8847 104.625 51.6754 103.246 56.8498 100.782C64.528 104.157 73.213 106.058 82.4102 106.058C94.3144 106.058 105.36 102.872 114.476 97.4303C119.972 101.071 126.562 103.192 133.648 103.192C152.843 103.192 168.404 87.6313 168.404 68.4363C168.404 55.4507 161.282 44.1284 150.731 38.162Z"/>
</mask>
<path fill-rule="evenodd" clip-rule="evenodd" d="M150.731 38.162C145.114 19.4036 127.72 5.73313 107.133 5.73313C103.004 5.73313 99.0036 6.28309 95.2007 7.31376C87.7422 2.67756 78.9394 0 69.5112 0C50.1281 0 33.3883 11.3169 25.5386 27.7038C10.6033 33.4296 0 47.9031 0 64.8531C0 86.8185 17.8065 104.625 39.7719 104.625C45.8847 104.625 51.6754 103.246 56.8498 100.782C64.528 104.157 73.213 106.058 82.4102 106.058C94.3144 106.058 105.36 102.872 114.476 97.4303C119.972 101.071 126.562 103.192 133.648 103.192C152.843 103.192 168.404 87.6313 168.404 68.4363C168.404 55.4507 161.282 44.1284 150.731 38.162Z" fill="url(#paint0_linear_114_8)"/>
<path d="M150.731 38.162L148.816 38.7358L149.046 39.5067L149.747 39.9029L150.731 38.162ZM95.2007 7.31376L94.1448 9.01234L94.8839 9.47175L95.7238 9.24412L95.2007 7.31376ZM25.5386 27.7038L26.2546 29.5712L26.9983 29.2861L27.3424 28.5678L25.5386 27.7038ZM56.8498 100.782L57.6545 98.951L56.8165 98.5827L55.99 98.9762L56.8498 100.782ZM114.476 97.4303L115.581 95.7631L114.532 95.0679L113.451 95.7131L114.476 97.4303ZM107.133 7.73313C126.812 7.73313 143.444 20.8004 148.816 38.7358L152.647 37.5882C146.783 18.0069 128.628 3.73313 107.133 3.73313V7.73313ZM95.7238 9.24412C99.3578 8.25925 103.183 7.73313 107.133 7.73313V3.73313C102.826 3.73313 98.6494 4.30693 94.6775 5.38339L95.7238 9.24412ZM96.2565 5.61517C88.4903 0.787683 79.3232 -2 69.5112 -2V2C78.5555 2 86.9941 4.56744 94.1448 9.01234L96.2565 5.61517ZM69.5112 -2C49.3296 -2 31.9045 9.78502 23.7349 26.8397L27.3424 28.5678C34.8721 12.8488 50.9266 2 69.5112 2V-2ZM24.8227 25.8363C9.13957 31.8488 -2 47.0475 -2 64.8531H2C2 48.7586 12.0669 35.0104 26.2546 29.5712L24.8227 25.8363ZM-2 64.8531C-2 87.923 16.7019 106.625 39.7719 106.625V102.625C18.911 102.625 2 85.7139 2 64.8531H-2ZM39.7719 106.625C46.1884 106.625 52.2723 105.177 57.7096 102.588L55.99 98.9762C51.0784 101.315 45.5809 102.625 39.7719 102.625V106.625ZM56.0451 102.613C63.978 106.1 72.9371 108.058 82.4102 108.058V104.058C73.4889 104.058 65.0781 102.214 57.6545 98.951L56.0451 102.613ZM82.4102 108.058C94.6708 108.058 106.072 104.777 115.501 99.1476L113.451 95.7131C104.649 100.968 93.958 104.058 82.4102 104.058V108.058ZM113.371 99.0976C119.184 102.949 126.157 105.192 133.648 105.192V101.192C126.967 101.192 120.759 99.1938 115.581 95.7631L113.371 99.0976ZM133.648 105.192C153.948 105.192 170.404 88.7358 170.404 68.4363H166.404C166.404 86.5267 151.738 101.192 133.648 101.192V105.192ZM170.404 68.4363C170.404 54.7008 162.868 42.7279 151.716 36.4211L149.747 39.9029C159.696 45.5289 166.404 56.2005 166.404 68.4363H170.404Z" fill="black" mask="url(#path-1-inside-1_114_8)"/>
<defs>
<linearGradient id="paint0_linear_114_8" x1="75.2442" y1="57.6871" x2="103.909" y2="126.84" gradientUnits="userSpaceOnUse">
<stop stop-color="white"/>
<stop offset="1" stop-color="#E5F6FA"/>
</linearGradient>
</defs>
</svg>
