<svg width="191" height="120" viewBox="0 0 191 120" fill="none" xmlns="http://www.w3.org/2000/svg">
<mask id="path-1-inside-1_95_1532" fill="white">
<path fill-rule="evenodd" clip-rule="evenodd" d="M171.053 43.3202C164.712 22.1467 145.079 6.71613 121.842 6.71613C117.182 6.71613 112.666 7.3369 108.373 8.50028C99.9547 3.26733 90.0187 0.245117 79.3769 0.245117C57.4984 0.245117 38.6034 13.0191 29.7433 31.5156C12.8853 37.9786 0.916992 54.3153 0.916992 73.4474C0.916992 98.2406 21.0158 118.339 45.809 118.339C52.7088 118.339 59.2451 116.783 65.0857 114.002C73.7524 117.811 83.5553 119.957 93.9365 119.957C107.373 119.957 119.841 116.361 130.13 110.218C136.333 114.328 143.772 116.722 151.77 116.722C173.436 116.722 191 99.1579 191 77.4918C191 62.8345 182.962 50.0547 171.053 43.3202Z"/>
</mask>
<path fill-rule="evenodd" clip-rule="evenodd" d="M171.053 43.3202C164.712 22.1467 145.079 6.71613 121.842 6.71613C117.182 6.71613 112.666 7.3369 108.373 8.50028C99.9547 3.26733 90.0187 0.245117 79.3769 0.245117C57.4984 0.245117 38.6034 13.0191 29.7433 31.5156C12.8853 37.9786 0.916992 54.3153 0.916992 73.4474C0.916992 98.2406 21.0158 118.339 45.809 118.339C52.7088 118.339 59.2451 116.783 65.0857 114.002C73.7524 117.811 83.5553 119.957 93.9365 119.957C107.373 119.957 119.841 116.361 130.13 110.218C136.333 114.328 143.772 116.722 151.77 116.722C173.436 116.722 191 99.1579 191 77.4918C191 62.8345 182.962 50.0547 171.053 43.3202Z" fill="url(#paint0_linear_95_1532)"/>
<path d="M171.053 43.3202L169.137 43.894L169.368 44.6649L170.069 45.0611L171.053 43.3202ZM108.373 8.50028L107.317 10.1989L108.057 10.6583L108.896 10.4306L108.373 8.50028ZM29.7433 31.5156L30.4593 33.3831L31.203 33.098L31.5471 32.3797L29.7433 31.5156ZM65.0857 114.002L65.8904 112.171L65.0524 111.802L64.2259 112.196L65.0857 114.002ZM130.13 110.218L131.235 108.551L130.186 107.856L129.105 108.501L130.13 110.218ZM121.842 8.71613C144.171 8.71613 163.043 23.5435 169.137 43.894L172.969 42.7464C166.382 20.75 145.987 4.71613 121.842 4.71613V8.71613ZM108.896 10.4306C113.02 9.31306 117.36 8.71613 121.842 8.71613V4.71613C117.003 4.71613 112.312 5.36074 107.85 6.56991L108.896 10.4306ZM109.429 6.80168C100.703 1.37744 90.4026 -1.75488 79.3769 -1.75488V2.24512C89.6349 2.24512 99.2066 5.15721 107.317 10.1989L109.429 6.80168ZM79.3769 -1.75488C56.6999 -1.75488 37.1196 11.4872 27.9396 30.6516L31.5471 32.3797C40.0872 14.551 58.2969 2.24512 79.3769 2.24512V-1.75488ZM29.0274 29.6482C11.4216 36.3978 -1.08301 53.4598 -1.08301 73.4474H2.91699C2.91699 55.1708 14.3489 39.5594 30.4593 33.3831L29.0274 29.6482ZM-1.08301 73.4474C-1.08301 99.3451 19.9113 120.339 45.809 120.339V116.339C22.1204 116.339 2.91699 97.136 2.91699 73.4474H-1.08301ZM45.809 120.339C53.0126 120.339 59.842 118.714 65.9456 115.807L64.2259 112.196C58.6481 114.852 52.4051 116.339 45.809 116.339V120.339ZM64.281 115.833C73.2024 119.753 83.2795 121.957 93.9365 121.957V117.957C83.8312 117.957 74.3024 115.868 65.8904 112.171L64.281 115.833ZM93.9365 121.957C107.73 121.957 120.552 118.266 131.156 111.936L129.105 108.501C119.13 114.456 107.017 117.957 93.9365 117.957V121.957ZM129.026 111.886C135.546 116.206 143.367 118.722 151.77 118.722V114.722C144.177 114.722 137.12 112.451 131.235 108.551L129.026 111.886ZM151.77 118.722C174.541 118.722 193 100.262 193 77.4918H189C189 98.0533 172.332 114.722 151.77 114.722V118.722ZM193 77.4918C193 62.0847 184.548 48.6542 172.038 41.5793L170.069 45.0611C181.376 51.4552 189 63.5844 189 77.4918H193Z" fill="black" mask="url(#path-1-inside-1_95_1532)"/>
<defs>
<linearGradient id="paint0_linear_95_1532" x1="85.8478" y1="65.3587" x2="118.202" y2="143.414" gradientUnits="userSpaceOnUse">
<stop stop-color="white"/>
<stop offset="1" stop-color="#E5F6FA"/>
</linearGradient>
</defs>
</svg>
