<svg width="41" height="67" viewBox="0 0 41 67" fill="none" xmlns="http://www.w3.org/2000/svg">
<path d="M14 57H26V61C26 64.3137 23.3137 67 20 67C16.6863 67 14 64.3137 14 61V57Z" fill="black"/>
<line y1="-1" x2="16.2376" y2="-1" transform="matrix(-0.375193 -0.926947 0.990118 -0.140239 16.9932 59.354)" stroke="black" stroke-width="2"/>
<line x1="25.0402" y1="57.7194" x2="29.1324" y2="43.7195" stroke="black" stroke-width="2"/>
<path d="M39.5 24.5C39.5 37.4641 30.7541 47.5 20.5 47.5C10.2459 47.5 1.5 37.4641 1.5 24.5C1.5 11.5359 10.2459 1.5 20.5 1.5C30.7541 1.5 39.5 11.5359 39.5 24.5Z" stroke="black" stroke-width="3"/>
<path d="M31.5 24.5C31.5 31.0873 30.1891 36.9771 28.1382 41.1643C26.0389 45.4503 23.4232 47.5 21 47.5C18.5768 47.5 15.9611 45.4503 13.8618 41.1643C11.8109 36.9771 10.5 31.0873 10.5 24.5C10.5 17.9127 11.8109 12.0229 13.8618 7.83569C15.9611 3.54974 18.5768 1.5 21 1.5C23.4232 1.5 26.0389 3.54974 28.1382 7.83569C30.1891 12.0229 31.5 17.9127 31.5 24.5Z" fill="black" stroke="black" stroke-width="3"/>
<path d="M26.5 24.5C26.5 31.1668 25.7262 37.1466 24.5075 41.412C23.8952 43.555 23.1944 45.1801 22.4817 46.235C21.7337 47.3423 21.2052 47.5 21 47.5C20.7948 47.5 20.2663 47.3423 19.5183 46.235C18.8056 45.1801 18.1048 43.555 17.4925 41.412C16.2738 37.1466 15.5 31.1668 15.5 24.5C15.5 17.8332 16.2738 11.8534 17.4925 7.58797C18.1048 5.44505 18.8056 3.81993 19.5183 2.76497C20.2663 1.65767 20.7948 1.5 21 1.5C21.2052 1.5 21.7337 1.65767 22.4817 2.76497C23.1944 3.81993 23.8952 5.44505 24.5075 7.58797C25.7262 11.8534 26.5 17.8332 26.5 24.5Z" fill="#E1E1E1" stroke="black" stroke-width="3"/>
</svg>
