<svg width="330" height="14" viewBox="0 0 330 14" fill="none" xmlns="http://www.w3.org/2000/svg">
<path d="M2.75977 8.09914C9.19813 8.09914 16.3152 7.45918 40.4785 7.2895C47.0312 7.24348 54.0921 8.09914 63.7788 7.77916C78.4051 7.29601 93.2459 5.8399 103.985 5.35508C113.435 4.92842 131.042 5.19024 141.068 5.51022C157.064 6.02073 169.129 9.06877 178.069 9.87357C185.256 10.5205 190.859 10.3584 198.233 10.8432C216.448 12.0408 231.884 10.3681 238.332 9.39845C249.253 7.75618 269.874 8.09914 284.734 7.29434C291.06 6.9517 303.249 6.15987 311.248 5.35508C315.941 4.87026 319.17 4.22061 321.59 4.06062C322.729 3.90063 323.689 3.58065 326.617 3.25098" stroke="#F5C15A" stroke-width="5" stroke-linecap="round"/>
</svg>
