<svg width="266" height="10" viewBox="0 0 266 10" fill="none" xmlns="http://www.w3.org/2000/svg">
<path d="M2.9668 5.27994C6.64181 5.27994 14.8091 4.91299 18.5147 4.2625C22.8609 3.49955 26.3123 3.98451 30.8157 3.70652C42.0865 3.01079 50.2193 3.79548 52.1541 4.07347C58.4998 4.98521 64.8137 4.72396 70.96 5.18542C78.0038 5.71426 81.3373 5.83592 84.1311 6.38911C85.278 6.61621 91.862 6.94787 102.87 6.94787C115.826 6.94787 118.777 6.39189 121.932 5.93043C126.899 5.20398 132.098 5.27994 143.176 4.81848C151.067 4.48975 166.302 4.72396 174.422 4.63223C183.096 4.53423 189.53 4.16799 198.701 4.25972C207.717 4.3499 218.119 5.09091 220.99 5.7414C222.704 6.12949 224.24 6.01939 230.211 6.29738C235.627 6.54951 245.907 6.39189 251.475 6.30016C257.593 6.02495 258.711 5.65244 259.912 5.28272C260.562 5.09647 261.296 4.91299 262.608 4.16799" stroke="#F5C15A" stroke-width="5" stroke-linecap="round"/>
</svg>
