<svg width="307" height="10" viewBox="0 0 307 10" fill="none" xmlns="http://www.w3.org/2000/svg">
<path d="M3 5.10549C7.26041 5.10549 16.7287 4.68869 21.0245 3.94983C26.0631 3.08323 30.0642 3.63408 35.285 3.31833C48.3512 2.52808 57.7794 3.41937 60.0224 3.73512C67.379 4.77072 74.6986 4.47398 81.824 4.99813C89.9898 5.59881 93.8543 5.73699 97.0931 6.36534C98.4227 6.62329 106.055 7 118.817 7C133.837 7 137.258 6.36849 140.915 5.84435C146.674 5.01921 152.701 5.10549 165.543 4.58134C174.692 4.20796 192.353 4.47398 201.766 4.36978C211.822 4.25847 219.282 3.84248 229.913 3.94667C240.365 4.04911 252.424 4.89077 255.753 5.62963C257.739 6.07045 259.52 5.94539 266.443 6.26114C272.721 6.54752 284.638 6.36849 291.093 6.2643C298.186 5.9517 299.482 5.52859 300.874 5.10864C301.628 4.89709 302.479 4.68869 304 3.84248" stroke="#F5C15A" stroke-width="5" stroke-linecap="round"/>
</svg>
