<svg width="388" height="450" viewBox="0 0 388 450" fill="none" xmlns="http://www.w3.org/2000/svg">
<circle cx="231.409" cy="155.956" r="110" transform="rotate(-56.4072 231.409 155.956)" fill="#40D395" fill-opacity="0.3" stroke="#40D395" stroke-width="5"/>
<circle cx="155.956" cy="293.956" r="110" transform="rotate(-56.4072 155.956 293.956)" fill="#F5C15A" fill-opacity="0.3" stroke="#F5C15A" stroke-width="5"/>
<circle cx="231.409" cy="155.956" r="110" transform="rotate(-56.4072 231.409 155.956)" fill="#4FC565" fill-opacity="0.3" stroke="#4FC565" stroke-width="5"/>
<circle cx="155.956" cy="293.956" r="110" transform="rotate(-56.4072 155.956 293.956)" fill="#F5C15A" fill-opacity="0.3" stroke="#F5C15A" stroke-width="5"/>
<mask id="path-5-inside-1_165_230" fill="white">
<path d="M123 185.915C154.058 176.449 188.949 180.434 218.106 199.801C241.471 215.32 257.157 238.064 264.175 263.108C233.117 272.573 198.226 268.59 169.069 249.224C145.704 233.704 130.018 210.96 123 185.915Z"/>
</mask>
<path d="M123 185.915C154.058 176.449 188.949 180.434 218.106 199.801C241.471 215.32 257.157 238.064 264.175 263.108C233.117 272.573 198.226 268.59 169.069 249.224C145.704 233.704 130.018 210.96 123 185.915Z" fill="#BDD2E0"/>
<path d="M123 185.915L122.125 183.045L119.32 183.901L120.111 186.725L123 185.915ZM218.106 199.801L219.766 197.302L219.766 197.302L218.106 199.801ZM264.175 263.108L265.049 265.977L267.855 265.122L267.064 262.298L264.175 263.108ZM169.069 249.224L167.409 251.723L167.409 251.723L169.069 249.224ZM123 185.915L123.875 188.785C154.111 179.569 188.068 183.45 216.447 202.3L218.106 199.801L219.766 197.302C189.831 177.418 154.004 173.329 122.125 183.045L123 185.915ZM218.106 199.801L216.447 202.3C239.19 217.406 254.455 239.539 261.286 263.917L264.175 263.108L267.064 262.298C259.859 236.589 243.752 213.234 219.766 197.302L218.106 199.801ZM264.175 263.108L263.3 260.238C233.064 269.453 199.107 265.574 170.729 246.725L169.069 249.224L167.409 251.723C197.345 271.606 233.171 275.693 265.049 265.977L264.175 263.108ZM169.069 249.224L170.729 246.725C147.985 231.618 132.72 209.484 125.889 185.106L123 185.915L120.111 186.725C127.316 212.435 143.423 235.791 167.409 251.723L169.069 249.224Z" fill="#4F94C5" mask="url(#path-5-inside-1_165_230)"/>
</svg>
